<svg width="20" height="20" viewBox="0 0 20 20" fill="none" xmlns="http://www.w3.org/2000/svg">
    <path
        d="M6.45829 2.08325C6.45829 1.73807 6.17847 1.45825 5.83329 1.45825C5.48811 1.45825 5.20829 1.73807 5.20829 2.08325V3.3993C4.00885 3.49535 3.22144 3.73106 2.64294 4.30956C2.06444 4.88806 1.82872 5.67548 1.73267 6.87492H18.2672C18.1712 5.67548 17.9355 4.88806 17.357 4.30956C16.7785 3.73106 15.9911 3.49535 14.7916 3.3993V2.08325C14.7916 1.73807 14.5118 1.45825 14.1666 1.45825C13.8214 1.45825 13.5416 1.73807 13.5416 2.08325V3.344C12.9872 3.33325 12.3658 3.33325 11.6666 3.33325H8.33329C7.6341 3.33325 7.01268 3.33325 6.45829 3.344V2.08325Z"
        fill="#4056F4" />
    <path fill-rule="evenodd" clip-rule="evenodd"
        d="M1.66663 9.99992C1.66663 9.30072 1.66663 8.67931 1.67738 8.12492H18.3225C18.3333 8.67931 18.3333 9.30072 18.3333 9.99992V11.6666C18.3333 14.8093 18.3333 16.3806 17.357 17.3569C16.3807 18.3333 14.8093 18.3333 11.6666 18.3333H8.33329C5.1906 18.3333 3.61925 18.3333 2.64294 17.3569C1.66663 16.3806 1.66663 14.8093 1.66663 11.6666V9.99992ZM14.1666 11.6666C14.6269 11.6666 15 11.2935 15 10.8333C15 10.373 14.6269 9.99992 14.1666 9.99992C13.7064 9.99992 13.3333 10.373 13.3333 10.8333C13.3333 11.2935 13.7064 11.6666 14.1666 11.6666ZM14.1666 14.9999C14.6269 14.9999 15 14.6268 15 14.1666C15 13.7063 14.6269 13.3333 14.1666 13.3333C13.7064 13.3333 13.3333 13.7063 13.3333 14.1666C13.3333 14.6268 13.7064 14.9999 14.1666 14.9999ZM10.8333 10.8333C10.8333 11.2935 10.4602 11.6666 9.99996 11.6666C9.53972 11.6666 9.16662 11.2935 9.16662 10.8333C9.16662 10.373 9.53972 9.99992 9.99996 9.99992C10.4602 9.99992 10.8333 10.373 10.8333 10.8333ZM10.8333 14.1666C10.8333 14.6268 10.4602 14.9999 9.99996 14.9999C9.53972 14.9999 9.16662 14.6268 9.16662 14.1666C9.16662 13.7063 9.53972 13.3333 9.99996 13.3333C10.4602 13.3333 10.8333 13.7063 10.8333 14.1666ZM5.83329 11.6666C6.29353 11.6666 6.66663 11.2935 6.66663 10.8333C6.66663 10.373 6.29353 9.99992 5.83329 9.99992C5.37305 9.99992 4.99996 10.373 4.99996 10.8333C4.99996 11.2935 5.37305 11.6666 5.83329 11.6666ZM5.83329 14.9999C6.29353 14.9999 6.66663 14.6268 6.66663 14.1666C6.66663 13.7063 6.29353 13.3333 5.83329 13.3333C5.37305 13.3333 4.99996 13.7063 4.99996 14.1666C4.99996 14.6268 5.37305 14.9999 5.83329 14.9999Z"
        fill="#4056F4" />
</svg>