<svg width="14" height="15" viewBox="0 0 14 15" fill="none" xmlns="http://www.w3.org/2000/svg">
<path d="M8.2932 2.54146C7.46428 2.15285 6.53534 2.15285 5.70642 2.54146L1.80327 4.37135C1.17561 4.66561 1.01196 5.49539 1.31234 6.06889L1.31234 8.95833C1.31234 9.19996 1.50821 9.39583 1.74984 9.39583C1.99146 9.39583 2.18734 9.19996 2.18734 8.95833V6.72535L5.70647 8.3752C6.53539 8.76382 7.46433 8.76382 8.29325 8.3752L12.1964 6.54532C13.0454 6.14728 13.0454 4.76941 12.1964 4.37137L8.2932 2.54146Z" fill="#4056F4"/>
<path d="M2.9165 8.03359V10.1982C2.9165 10.7862 3.21021 11.3367 3.72462 11.6216C4.58116 12.0959 5.95217 12.75 6.99984 12.75C8.04751 12.75 9.41851 12.0959 10.2751 11.6216C10.7895 11.3367 11.0832 10.7862 11.0832 10.1982V8.03362L8.66468 9.16746C7.60043 9.6664 6.3993 9.6664 5.33505 9.16746L2.9165 8.03359Z" fill="#4056F4"/>
</svg>
