<svg width="14" height="15" viewBox="0 0 14 15" fill="none" xmlns="http://www.w3.org/2000/svg">
<path d="M3.30739 6.28334L5.09363 3.86657C6.24826 2.30437 6.82558 1.52327 7.3642 1.68833C7.90283 1.8534 7.90283 2.81141 7.90283 4.72745V4.9081C7.90283 5.59918 7.90283 5.94471 8.12364 6.16145L8.13533 6.17268C8.36091 6.38484 8.72054 6.38484 9.4398 6.38484C10.7341 6.38484 11.3813 6.38484 11.6 6.77739C11.6037 6.78389 11.6072 6.79044 11.6106 6.79704C11.8171 7.19567 11.4424 7.70265 10.6929 8.71661L8.90667 11.1333C7.75202 12.6955 7.1747 13.4767 6.63607 13.3116C6.09744 13.1465 6.09746 12.1885 6.09748 10.2724L6.09749 10.0919C6.0975 9.40078 6.0975 9.05523 5.87669 8.83849L5.865 8.82727C5.63942 8.6151 5.27979 8.6151 4.56052 8.6151C3.26618 8.6151 2.61901 8.6151 2.40029 8.22255C2.39666 8.21605 2.39314 8.2095 2.38973 8.2029C2.18325 7.80428 2.55796 7.2973 3.30739 6.28334Z" fill="#1E8F00"/>
</svg>
