<svg width="20" height="20" viewBox="0 0 20 20" fill="none" xmlns="http://www.w3.org/2000/svg">
<path d="M17.5 13.409V9.24789C17.5 5.67405 17.5 3.88713 16.4017 2.77688C15.3033 1.66663 13.5355 1.66663 10 1.66663C6.46447 1.66663 4.6967 1.66663 3.59835 2.77688C2.5 3.88713 2.5 5.67405 2.5 9.24789V13.409C2.5 15.9895 2.5 17.2798 3.11176 17.8435C3.40351 18.1124 3.77179 18.2814 4.1641 18.3262C4.98668 18.4204 5.94728 17.5707 7.86847 15.8715C8.71768 15.1204 9.14229 14.7448 9.63356 14.6459C9.87548 14.5971 10.1245 14.5971 10.3664 14.6459C10.8577 14.7448 11.2823 15.1204 12.1315 15.8715C14.0527 17.5707 15.0133 18.4204 15.8359 18.3262C16.2282 18.2814 16.5965 18.1124 16.8882 17.8435C17.5 17.2798 17.5 15.9895 17.5 13.409Z" stroke="#1A1A1A" stroke-width="1.5"/>
<path d="M12.5 5H7.5" stroke="#1A1A1A" stroke-width="1.5" stroke-linecap="round"/>
</svg>
