<svg width="currentSize" height="currentSize" viewBox="0 0 28 28" fill="none" xmlns="http://www.w3.org/2000/svg">
    <path
        d="M10.2041 5.21113C11.8929 2.18146 12.7374 0.666626 13.9998 0.666626C15.2623 0.666626 16.1068 2.18146 17.7956 5.21112L18.2325 5.99494C18.7125 6.85587 18.9524 7.28634 19.3266 7.57037C19.7007 7.8544 20.1667 7.95983 21.0987 8.17069L21.9471 8.36266C25.2267 9.1047 26.8665 9.47572 27.2566 10.7303C27.6467 11.9848 26.5288 13.2921 24.293 15.9065L23.7146 16.5829C23.0793 17.3259 22.7616 17.6973 22.6187 18.1569C22.4758 18.6165 22.5238 19.1121 22.6199 20.1034L22.7073 21.0058C23.0453 24.4941 23.2143 26.2382 22.193 27.0136C21.1716 27.7889 19.6363 27.082 16.5656 25.6682L15.7712 25.3024C14.8986 24.9006 14.4623 24.6998 13.9998 24.6998C13.5374 24.6998 13.1011 24.9006 12.2285 25.3024L11.4341 25.6682C8.3634 27.082 6.82807 27.7889 5.8067 27.0136C4.78533 26.2382 4.95434 24.4941 5.29237 21.0058L5.37982 20.1034C5.47587 19.1121 5.5239 18.6165 5.38099 18.1569C5.23808 17.6973 4.9204 17.3259 4.28506 16.5829L3.70663 15.9065C1.47084 13.2921 0.352937 11.9848 0.743065 10.7303C1.13319 9.47572 2.77298 9.1047 6.05255 8.36266L6.90102 8.17069C7.83297 7.95983 8.29895 7.8544 8.6731 7.57037C9.04724 7.28634 9.2872 6.85587 9.76713 5.99494L10.2041 5.21113Z"
        fill="currentColor" />
</svg>